<svg width="64" height="64" viewBox="0 0 64 64" fill="none" xmlns="http://www.w3.org/2000/svg">
  <!-- Simple Shield -->
  <path d="M32 6
           L52 14
           C52 14 52 35 52 35
           C52 52 32 60 32 60
           C32 60 12 52 12 35
           C12 35 12 14 12 14
           L32 6Z"
        fill="#00ff9d"
        opacity="0.2"/>

  <path d="M32 6
           L52 14
           C52 14 52 35 52 35
           C52 52 32 60 32 60
           C32 60 12 52 12 35
           C12 35 12 14 12 14
           L32 6Z"
        stroke="#00ff9d"
        stroke-width="2"
        fill="none"/>

  <!-- Eye -->
  <ellipse cx="32" cy="32" rx="10" ry="7" fill="#0a0a0a"/>
  <circle cx="32" cy="32" r="4" fill="#00ff9d"/>

  <!-- Checkmark -->
  <path d="M24 42 L30 48 L40 38"
        stroke="#00ff9d"
        stroke-width="3"
        stroke-linecap="round"
        stroke-linejoin="round"
        fill="none"/>
</svg>
